# This file uses centimeters as units for non-parametric coordinates.

v -4.500000 0.000000 0.000000
v -0.900000 0.000000 0.000000
v -0.900000 2.500000 0.000000
v 0.900000 2.500000 0.000000
v 0.900000 0.000000 0.000000
v 4.500000 0.000000 0.000000
v 4.500000 2.699999 0.000000
v -4.500000 2.699999 0.000000
v -4.500000 0.000000 -9.000000
v -4.500000 2.699999 -9.000000
v -4.386259 0.000000 -8.912996
v -4.386259 0.000000 -0.087004
v -0.900000 0.000000 -0.087004
v 0.900000 0.000000 -0.087004
v 4.386259 0.000000 -0.087004
v 4.500000 0.000000 -9.000000
v 4.500000 2.699999 -9.000000
v 4.386259 0.000000 -8.912996
v -4.386259 2.610955 -8.912996
v -4.386259 2.610955 -0.087004
v 0.900000 2.500000 -0.087004
v -0.900000 2.500000 -0.087004
v 4.386259 2.610955 -0.087004
v 4.386259 2.610955 -8.912996
vt 0.107928 0.334305
vt 0.107928 0.001992
vt 0.207622 0.001992
vt 0.207622 0.334305
vt 0.553352 0.334305
vt 0.553352 0.001992
vt 0.653046 0.001992
vt 0.653046 0.334305
vt 0.394890 0.663931
vt 0.394890 0.338043
vt 0.491296 0.338043
vt 0.491296 0.663931
vt 0.292738 0.663931
vt 0.292738 0.338043
vt 0.389144 0.338043
vt 0.389144 0.663931
vt 0.540135 0.766404
vt 0.536923 0.766404
vt 0.536923 0.674095
vt 0.540135 0.674095
vt 0.549263 0.766404
vt 0.546050 0.766404
vt 0.546050 0.674095
vt 0.549263 0.674095
vt 0.213808 0.001992
vt 0.218007 0.005205
vt 0.218007 0.331092
vt 0.346733 0.331092
vt 0.346733 0.334305
vt 0.213808 0.334305
vt 0.541921 0.331092
vt 0.541921 0.005205
vt 0.546120 0.001992
vt 0.546120 0.334305
vt 0.413195 0.331092
vt 0.413195 0.334305
vt 0.602484 0.338043
vt 0.934796 0.338043
vt 0.934796 0.670356
vt 0.602484 0.670356
vt 0.001866 0.993558
vt 0.001866 0.667670
vt 0.325779 0.667670
vt 0.325779 0.993558
vt 0.558390 0.740558
vt 0.555178 0.740558
vt 0.555178 0.674095
vt 0.558390 0.674095
vt 0.001866 0.334305
vt 0.001866 0.201380
vt 0.094175 0.201380
vt 0.094175 0.134917
vt 0.001866 0.134917
vt 0.001866 0.001992
vt 0.101560 0.001992
vt 0.101560 0.334305
vt 0.497043 0.670356
vt 0.497043 0.338044
vt 0.596737 0.338044
vt 0.596737 0.670356
vt 0.428872 0.667670
vt 0.428872 0.796395
vt 0.336563 0.796395
vt 0.336563 0.862858
vt 0.428872 0.862858
vt 0.428872 0.991583
vt 0.332466 0.991583
vt 0.332466 0.667670
vt 0.434694 0.998008
vt 0.434694 0.674095
vt 0.531100 0.674095
vt 0.531100 0.998008
vn 0.000000 0.000000 1.000000
vn 0.000000 0.000000 1.000000
vn 0.000000 0.000000 1.000000
vn 0.000000 0.000000 1.000000
vn 0.000000 0.000000 1.000000
vn 0.000000 0.000000 1.000000
vn 0.000000 0.000000 1.000000
vn 0.000000 0.000000 1.000000
vn -1.000000 0.000000 0.000000
vn -1.000000 0.000000 0.000000
vn -1.000000 0.000000 0.000000
vn -1.000000 0.000000 0.000000
vn 0.000000 -1.000000 0.000000
vn 0.000000 -1.000000 0.000000
vn 0.000000 -1.000000 0.000000
vn 0.000000 -1.000000 0.000000
vn 0.000000 -1.000000 0.000000
vn 0.000000 -1.000000 0.000000
vn 0.000000 -1.000000 0.000000
vn 0.000000 -1.000000 0.000000
vn 0.000000 -1.000000 0.000000
vn 0.000000 -1.000000 0.000000
vn 1.000000 0.000000 0.000000
vn 1.000000 0.000000 0.000000
vn 1.000000 0.000000 0.000000
vn 1.000000 0.000000 0.000000
vn 0.000000 1.000000 0.000000
vn 0.000000 1.000000 0.000000
vn 0.000000 1.000000 0.000000
vn 0.000000 1.000000 0.000000
vn 0.000000 0.000000 -1.000000
vn 0.000000 0.000000 -1.000000
vn 0.000000 0.000000 -1.000000
vn 0.000000 0.000000 -1.000000
vn 0.000000 -1.000000 0.000000
vn 0.000000 -1.000000 0.000000
vn 1.000000 0.000000 0.000000
vn 1.000000 0.000000 0.000000
vn 1.000000 0.000000 0.000000
vn 1.000000 0.000000 0.000000
vn 0.000000 0.000000 -1.000000
vn 0.000000 0.000000 -1.000000
vn 0.000000 0.000000 -1.000000
vn 0.000000 0.000000 -1.000000
vn 0.000000 0.000000 -1.000000
vn 0.000000 0.000000 -1.000000
vn 0.000000 0.000000 -1.000000
vn 0.000000 0.000000 -1.000000
vn -1.000000 0.000000 0.000000
vn -1.000000 0.000000 0.000000
vn -1.000000 0.000000 0.000000
vn -1.000000 0.000000 0.000000
vn 0.000000 0.000000 1.000000
vn 0.000000 0.000000 1.000000
vn 0.000000 0.000000 1.000000
vn 0.000000 0.000000 1.000000
vn 0.000000 -1.000000 0.000000
vn 0.000000 -1.000000 0.000000
vn 0.000000 -1.000000 0.000000
vn 0.000000 -1.000000 0.000000
vn -1.000000 0.000000 0.000000
vn -1.000000 0.000000 0.000000
vn -1.000000 0.000000 0.000000
vn -1.000000 0.000000 0.000000
vn 0.000000 -1.000000 0.000000
vn 0.000000 -1.000000 0.000000
vn 0.000000 -1.000000 0.000000
vn 0.000000 -1.000000 0.000000
vn 1.000000 0.000000 0.000000
vn 1.000000 0.000000 0.000000
vn 1.000000 0.000000 0.000000
vn 1.000000 0.000000 0.000000
s 1
f 1/49/1 2/50/2 8/56/3
f 2/50/2 3/51/4 8/56/3
f 8/56/3 3/51/4 7/55/5
f 3/51/4 4/52/6 7/55/5
f 7/55/5 4/52/6 6/54/7
f 4/52/6 5/53/8 6/54/7
s 2
f 9/1/9 1/2/10 10/4/11
f 10/4/11 1/2/10 8/3/12
s 3
f 9/25/13 11/26/14 1/30/15
f 11/26/14 12/27/16 1/30/15
f 1/30/15 12/27/16 2/29/17
f 12/27/16 13/28/18 2/29/17
f 14/35/19 15/31/20 5/36/21
f 5/36/21 15/31/20 6/34/22
s 5
f 6/5/23 16/6/24 7/8/25
f 7/8/25 16/6/24 17/7/26
s 6
f 8/37/27 7/38/28 10/40/29
f 10/40/29 7/38/28 17/39/30
s 7
f 10/57/31 17/58/32 9/60/33
f 9/60/33 17/58/32 16/59/34
s 3
f 9/25/13 16/33/35 11/26/14
f 11/26/14 16/33/35 18/32/36
f 16/33/35 6/34/22 18/32/36
f 15/31/20 18/32/36 6/34/22
s 8
f 12/9/37 11/10/38 20/12/39
f 20/12/39 11/10/38 19/11/40
s 9
f 15/61/41 14/62/42 23/68/43
f 14/62/42 21/63/44 23/68/43
f 23/68/43 21/63/44 20/67/45
f 21/63/44 22/64/46 20/67/45
f 20/67/45 22/64/46 12/66/47
f 22/64/46 13/65/48 12/66/47
s 10
f 18/13/49 15/14/50 24/16/51
f 24/16/51 15/14/50 23/15/52
s 11
f 11/69/53 18/70/54 19/72/55
f 19/72/55 18/70/54 24/71/56
s 12
f 20/41/57 19/42/58 23/44/59
f 23/44/59 19/42/58 24/43/60
s 13
f 4/17/61 21/18/62 5/20/63
f 5/20/63 21/18/62 14/19/64
s 14
f 3/45/65 22/46/66 4/48/67
f 4/48/67 22/46/66 21/47/68
s 15
f 22/21/69 3/22/70 13/24/71
f 13/24/71 3/22/70 2/23/72
