# This file uses centimeters as units for non-parametric coordinates.

v -4.590000 0.000000 -0.000000
v -0.918000 0.000000 -0.000000
v -0.918000 2.500000 -0.000000
v 0.918000 2.500000 -0.000000
v 0.918000 0.000000 -0.000000
v 4.590000 0.000000 -0.000000
v 4.590000 27.044518 -0.000000
v -4.590000 27.044518 -0.000000
v -4.590000 0.000000 -9.180000
v -4.590000 27.044518 -9.180000
v -4.473984 0.000000 -9.091256
v -4.473984 0.000000 -0.088744
v -0.918000 0.000000 -0.088744
v 0.918000 0.000000 -0.088744
v 4.473984 0.000000 -0.088744
v 4.590000 0.000000 -9.180000
v 4.590000 27.044518 -9.180000
v 4.473984 0.000000 -9.091256
v -4.473984 26.955475 -9.091256
v -4.473984 26.955475 -0.088744
v 0.918000 2.500000 -0.088744
v -0.918000 2.500000 -0.088744
v 4.473984 26.955475 -0.088744
v 4.473984 26.955475 -9.091256
vt 0.177593 0.001979
vt 0.345155 0.001979
vt 0.177593 0.495622
vt 0.345155 0.495622
vt 0.352998 0.001979
vt 0.520561 0.001979
vt 0.352998 0.495622
vt 0.520561 0.495622
vt 0.703810 0.001979
vt 0.868132 0.001979
vt 0.703810 0.493997
vt 0.868132 0.493997
vt 0.664223 0.499613
vt 0.828546 0.499613
vt 0.664223 0.991630
vt 0.828546 0.991630
vt 0.173366 0.716799
vt 0.171746 0.716799
vt 0.173366 0.671167
vt 0.171746 0.671167
vt 0.181161 0.716799
vt 0.179542 0.716799
vt 0.181161 0.671167
vt 0.179542 0.671167
vt 0.321063 0.499613
vt 0.323181 0.501233
vt 0.321063 0.667175
vt 0.488626 0.499613
vt 0.323181 0.665556
vt 0.486508 0.501233
vt 0.388088 0.667175
vt 0.488626 0.667175
vt 0.388088 0.665556
vt 0.486508 0.665556
vt 0.421601 0.667175
vt 0.421601 0.665556
vt 0.147366 0.499613
vt 0.314928 0.499613
vt 0.147366 0.667175
vt 0.314928 0.667175
vt 0.001992 0.835489
vt 0.001992 0.671167
vt 0.165319 0.835489
vt 0.165319 0.671167
vt 0.188957 0.704679
vt 0.187337 0.704679
vt 0.188957 0.671167
vt 0.187337 0.671167
vt 0.001992 0.001979
vt 0.069017 0.001979
vt 0.001992 0.495622
vt 0.069017 0.047612
vt 0.169554 0.495622
vt 0.102529 0.047612
vt 0.169554 0.001979
vt 0.102529 0.001979
vt 0.528404 0.001979
vt 0.695966 0.001979
vt 0.528404 0.495622
vt 0.695966 0.495622
vt 0.998008 0.990005
vt 0.933101 0.990005
vt 0.998008 0.497988
vt 0.933101 0.944373
vt 0.834681 0.497988
vt 0.899588 0.944373
vt 0.834681 0.990005
vt 0.899588 0.990005
vt 0.494761 0.499613
vt 0.658088 0.499613
vt 0.494761 0.991630
vt 0.658088 0.991630
vn 0.000000 0.000000 1.000000
vn 0.000000 0.000000 1.000000
vn 0.000000 0.000000 1.000000
vn 0.000000 0.000000 1.000000
vn -0.000000 0.000000 1.000000
vn -0.000000 0.000000 1.000000
vn -0.000000 0.000000 1.000000
vn 0.000000 0.000000 1.000000
vn -1.000000 0.000000 0.000000
vn -1.000000 0.000000 0.000000
vn -1.000000 0.000000 0.000000
vn -1.000000 0.000000 0.000000
vn 0.000000 -1.000000 0.000000
vn 0.000000 -1.000000 0.000000
vn 0.000000 -1.000000 0.000000
vn 0.000000 -1.000000 0.000000
vn 0.000000 -1.000000 0.000000
vn 0.000000 -1.000000 0.000000
vn 0.000000 -1.000000 0.000000
vn 0.000000 -1.000000 0.000000
vn 0.000000 -1.000000 0.000000
vn 0.000000 -1.000000 0.000000
vn 1.000000 0.000000 0.000000
vn 1.000000 0.000000 0.000000
vn 1.000000 0.000000 0.000000
vn 1.000000 0.000000 0.000000
vn 0.000000 1.000000 0.000000
vn 0.000000 1.000000 0.000000
vn 0.000000 1.000000 0.000000
vn 0.000000 1.000000 0.000000
vn 0.000000 0.000000 -1.000000
vn 0.000000 0.000000 -1.000000
vn 0.000000 0.000000 -1.000000
vn 0.000000 0.000000 -1.000000
vn 0.000000 -1.000000 0.000000
vn 0.000000 -1.000000 0.000000
vn 1.000000 0.000000 0.000000
vn 1.000000 0.000000 0.000000
vn 1.000000 0.000000 0.000000
vn 1.000000 0.000000 0.000000
vn 0.000000 0.000000 -1.000000
vn 0.000000 0.000000 -1.000000
vn 0.000000 0.000000 -1.000000
vn 0.000000 0.000000 -1.000000
vn 0.000000 0.000000 -1.000000
vn 0.000000 0.000000 -1.000000
vn 0.000000 0.000000 -1.000000
vn 0.000000 0.000000 -1.000000
vn -1.000000 0.000000 0.000000
vn -1.000000 0.000000 0.000000
vn -1.000000 0.000000 0.000000
vn -1.000000 0.000000 0.000000
vn 0.000000 0.000000 1.000000
vn 0.000000 0.000000 1.000000
vn 0.000000 0.000000 1.000000
vn 0.000000 0.000000 1.000000
vn 0.000000 -1.000000 0.000000
vn 0.000000 -1.000000 0.000000
vn 0.000000 -1.000000 0.000000
vn 0.000000 -1.000000 0.000000
vn -1.000000 0.000000 0.000000
vn -1.000000 0.000000 0.000000
vn -1.000000 0.000000 0.000000
vn -1.000000 0.000000 0.000000
vn 0.000000 -1.000000 0.000000
vn 0.000000 -1.000000 0.000000
vn 0.000000 -1.000000 0.000000
vn 0.000000 -1.000000 0.000000
vn 1.000000 0.000000 0.000000
vn 1.000000 0.000000 0.000000
vn 1.000000 0.000000 0.000000
vn 1.000000 0.000000 0.000000
s 1
f 1/49/1 2/50/2 8/51/3
f 2/50/2 3/52/4 8/51/3
f 8/51/3 3/52/4 7/53/5
f 3/52/4 4/54/6 7/53/5
f 7/53/5 4/54/6 6/55/7
f 4/54/6 5/56/8 6/55/7
s 2
f 9/1/9 1/2/10 10/3/11
f 10/3/11 1/2/10 8/4/12
s 3
f 9/25/13 11/26/14 1/27/15
f 11/26/14 12/29/16 1/27/15
f 1/27/15 12/29/16 2/31/17
f 12/29/16 13/33/18 2/31/17
f 14/36/19 15/34/20 5/35/21
f 5/35/21 15/34/20 6/32/22
s 5
f 6/5/23 16/6/24 7/7/25
f 7/7/25 16/6/24 17/8/26
s 6
f 8/37/27 7/38/28 10/39/29
f 10/39/29 7/38/28 17/40/30
s 7
f 10/57/31 17/58/32 9/59/33
f 9/59/33 17/58/32 16/60/34
s 3
f 9/25/13 16/28/35 11/26/14
f 11/26/14 16/28/35 18/30/36
f 16/28/35 6/32/22 18/30/36
f 15/34/20 18/30/36 6/32/22
s 8
f 12/9/37 11/10/38 20/11/39
f 20/11/39 11/10/38 19/12/40
s 9
f 15/61/41 14/62/42 23/63/43
f 14/62/42 21/64/44 23/63/43
f 23/63/43 21/64/44 20/65/45
f 21/64/44 22/66/46 20/65/45
f 20/65/45 22/66/46 12/67/47
f 22/66/46 13/68/48 12/67/47
s 10
f 18/13/49 15/14/50 24/15/51
f 24/15/51 15/14/50 23/16/52
s 11
f 11/69/53 18/70/54 19/71/55
f 19/71/55 18/70/54 24/72/56
s 12
f 20/41/57 19/42/58 23/43/59
f 23/43/59 19/42/58 24/44/60
s 13
f 4/17/61 21/18/62 5/19/63
f 5/19/63 21/18/62 14/20/64
s 14
f 3/45/65 22/46/66 4/47/67
f 4/47/67 22/46/66 21/48/68
s 15
f 22/21/69 3/22/70 13/23/71
f 13/23/71 3/22/70 2/24/72
