# This file uses centimeters as units for non-parametric coordinates.

v -4.590000 0.000000 -0.000000
v -0.918000 0.000000 -0.000000
v -0.918000 2.500000 -0.000000
v 0.918000 2.500000 -0.000000
v 0.918000 0.000000 -0.000000
v 4.590000 0.000000 -0.000000
v 4.590000 10.844522 -0.000000
v -4.590000 10.844522 -0.000000
v -4.590000 0.000000 -9.180000
v -4.590000 10.844522 -9.180000
v -4.473984 0.000000 -9.091256
v -4.473984 0.000000 -0.088744
v -0.918000 0.000000 -0.088744
v 0.918000 0.000000 -0.088744
v 4.473984 0.000000 -0.088744
v 4.590000 0.000000 -9.180000
v 4.590000 10.844522 -9.180000
v 4.473984 0.000000 -9.091256
v -4.473984 10.755478 -9.091256
v -4.473984 10.755478 -0.088744
v 0.918000 2.500000 -0.088744
v -0.918000 2.500000 -0.088744
v 4.473984 10.755478 -0.088744
v 4.473984 10.755478 -9.091256
vt 0.227346 0.001992
vt 0.446097 0.001992
vt 0.227346 0.260407
vt 0.446097 0.260407
vt 0.452776 0.001992
vt 0.671527 0.001992
vt 0.452776 0.260407
vt 0.671527 0.260407
vt 0.435872 0.263905
vt 0.650393 0.263905
vt 0.435872 0.520198
vt 0.650393 0.520198
vt 0.001746 0.523695
vt 0.216267 0.523695
vt 0.001746 0.779989
vt 0.216267 0.779989
vt 0.431795 0.843059
vt 0.429680 0.843059
vt 0.431795 0.783486
vt 0.429680 0.783486
vt 0.424304 0.843059
vt 0.422190 0.843059
vt 0.424304 0.783486
vt 0.422190 0.783486
vt 0.440821 0.525817
vt 0.443586 0.527932
vt 0.440821 0.744568
vt 0.659572 0.525817
vt 0.443586 0.742454
vt 0.656807 0.527932
vt 0.528321 0.744568
vt 0.659572 0.744568
vt 0.528321 0.742454
vt 0.656807 0.742454
vt 0.572072 0.744568
vt 0.572072 0.742454
vt 0.655769 0.748066
vt 0.874520 0.748066
vt 0.655769 0.966817
vt 0.874520 0.966817
vt 0.437171 0.998008
vt 0.437171 0.783486
vt 0.650393 0.998008
vt 0.650393 0.783486
vt 0.416813 0.827236
vt 0.414699 0.827236
vt 0.416813 0.783486
vt 0.414699 0.783486
vt 0.001746 0.001992
vt 0.089246 0.001992
vt 0.001746 0.260407
vt 0.089246 0.061565
vt 0.220497 0.260407
vt 0.132996 0.061565
vt 0.220497 0.001992
vt 0.132996 0.001992
vt 0.655769 0.263905
vt 0.874520 0.263905
vt 0.655769 0.522320
vt 0.874520 0.522320
vt 0.430495 0.520198
vt 0.345760 0.520198
vt 0.430495 0.263905
vt 0.345760 0.460625
vt 0.217274 0.263905
vt 0.302009 0.460625
vt 0.217274 0.520198
vt 0.302009 0.520198
vt 0.222223 0.523695
vt 0.435444 0.523695
vt 0.222223 0.779989
vt 0.435444 0.779989
vn 0.000000 0.000000 1.000000
vn 0.000000 0.000000 1.000000
vn 0.000000 0.000000 1.000000
vn 0.000000 0.000000 1.000000
vn 0.000000 0.000000 1.000000
vn 0.000000 0.000000 1.000000
vn 0.000000 0.000000 1.000000
vn 0.000000 0.000000 1.000000
vn -1.000000 0.000000 0.000000
vn -1.000000 0.000000 0.000000
vn -1.000000 0.000000 0.000000
vn -1.000000 0.000000 0.000000
vn 0.000000 -1.000000 0.000000
vn 0.000000 -1.000000 0.000000
vn 0.000000 -1.000000 0.000000
vn 0.000000 -1.000000 0.000000
vn 0.000000 -1.000000 0.000000
vn 0.000000 -1.000000 0.000000
vn 0.000000 -1.000000 0.000000
vn 0.000000 -1.000000 0.000000
vn 0.000000 -1.000000 0.000000
vn 0.000000 -1.000000 0.000000
vn 1.000000 0.000000 0.000000
vn 1.000000 0.000000 0.000000
vn 1.000000 0.000000 0.000000
vn 1.000000 0.000000 0.000000
vn 0.000000 1.000000 0.000000
vn 0.000000 1.000000 0.000000
vn 0.000000 1.000000 0.000000
vn 0.000000 1.000000 0.000000
vn 0.000000 0.000000 -1.000000
vn 0.000000 0.000000 -1.000000
vn 0.000000 0.000000 -1.000000
vn 0.000000 0.000000 -1.000000
vn 0.000000 -1.000000 0.000000
vn 0.000000 -1.000000 0.000000
vn 1.000000 0.000000 0.000000
vn 1.000000 0.000000 0.000000
vn 1.000000 0.000000 0.000000
vn 1.000000 0.000000 0.000000
vn 0.000000 0.000000 -1.000000
vn -0.000000 0.000000 -1.000000
vn -0.000000 0.000000 -1.000000
vn -0.000000 0.000000 -1.000000
vn 0.000000 0.000000 -1.000000
vn 0.000000 0.000000 -1.000000
vn 0.000000 0.000000 -1.000000
vn 0.000000 0.000000 -1.000000
vn -1.000000 0.000000 0.000000
vn -1.000000 0.000000 0.000000
vn -1.000000 0.000000 0.000000
vn -1.000000 0.000000 0.000000
vn 0.000000 0.000000 1.000000
vn 0.000000 0.000000 1.000000
vn 0.000000 0.000000 1.000000
vn 0.000000 0.000000 1.000000
vn 0.000000 -1.000000 0.000000
vn 0.000000 -1.000000 0.000000
vn 0.000000 -1.000000 0.000000
vn 0.000000 -1.000000 0.000000
vn -1.000000 0.000000 0.000000
vn -1.000000 0.000000 0.000000
vn -1.000000 0.000000 0.000000
vn -1.000000 0.000000 0.000000
vn 0.000000 -1.000000 0.000000
vn 0.000000 -1.000000 0.000000
vn 0.000000 -1.000000 0.000000
vn 0.000000 -1.000000 0.000000
vn 1.000000 0.000000 0.000000
vn 1.000000 0.000000 0.000000
vn 1.000000 0.000000 0.000000
vn 1.000000 0.000000 0.000000
s 1
f 1/49/1 2/50/2 8/51/3
f 2/50/2 3/52/4 8/51/3
f 8/51/3 3/52/4 7/53/5
f 3/52/4 4/54/6 7/53/5
f 7/53/5 4/54/6 6/55/7
f 4/54/6 5/56/8 6/55/7
s 2
f 9/1/9 1/2/10 10/3/11
f 10/3/11 1/2/10 8/4/12
s 3
f 9/25/13 11/26/14 1/27/15
f 11/26/14 12/29/16 1/27/15
f 1/27/15 12/29/16 2/31/17
f 12/29/16 13/33/18 2/31/17
f 14/36/19 15/34/20 5/35/21
f 5/35/21 15/34/20 6/32/22
s 5
f 6/5/23 16/6/24 7/7/25
f 7/7/25 16/6/24 17/8/26
s 6
f 8/37/27 7/38/28 10/39/29
f 10/39/29 7/38/28 17/40/30
s 7
f 10/57/31 17/58/32 9/59/33
f 9/59/33 17/58/32 16/60/34
s 3
f 9/25/13 16/28/35 11/26/14
f 11/26/14 16/28/35 18/30/36
f 16/28/35 6/32/22 18/30/36
f 15/34/20 18/30/36 6/32/22
s 8
f 12/9/37 11/10/38 20/11/39
f 20/11/39 11/10/38 19/12/40
s 9
f 15/61/41 14/62/42 23/63/43
f 14/62/42 21/64/44 23/63/43
f 23/63/43 21/64/44 20/65/45
f 21/64/44 22/66/46 20/65/45
f 20/65/45 22/66/46 12/67/47
f 22/66/46 13/68/48 12/67/47
s 10
f 18/13/49 15/14/50 24/15/51
f 24/15/51 15/14/50 23/16/52
s 11
f 11/69/53 18/70/54 19/71/55
f 19/71/55 18/70/54 24/72/56
s 12
f 20/41/57 19/42/58 23/43/59
f 23/43/59 19/42/58 24/44/60
s 13
f 4/17/61 21/18/62 5/19/63
f 5/19/63 21/18/62 14/20/64
s 14
f 3/45/65 22/46/66 4/47/67
f 4/47/67 22/46/66 21/48/68
s 15
f 22/21/69 3/22/70 13/23/71
f 13/23/71 3/22/70 2/24/72
